<svg viewBox="0 0 960 540" xmlns="http://www.w3.org/2000/svg" role="img" aria-label="Product preview placeholder — SourceGPT supplier discovery interface">
  <defs>
    <linearGradient id="bg" x1="0" y1="0" x2="1" y2="1">
      <stop offset="0%" stop-color="#EFF6FF" />
      <stop offset="100%" stop-color="#F8FAFC" />
    </linearGradient>
  </defs>

  <rect width="960" height="540" fill="url(#bg)" />

  <!-- Stat tiles row -->
  <g>
    <rect x="32" y="32" width="204" height="88" rx="12" fill="#FFFFFF" stroke="#E2E8F0" stroke-width="1" />
    <rect x="52" y="52" width="60" height="16" rx="4" fill="#1E293B" />
    <rect x="52" y="78" width="110" height="10" rx="4" fill="#94A3B8" />

    <rect x="252" y="32" width="204" height="88" rx="12" fill="#FFFFFF" stroke="#E2E8F0" stroke-width="1" />
    <rect x="272" y="52" width="60" height="16" rx="4" fill="#1E293B" />
    <rect x="272" y="78" width="110" height="10" rx="4" fill="#94A3B8" />

    <rect x="472" y="32" width="204" height="88" rx="12" fill="#FFFFFF" stroke="#E2E8F0" stroke-width="1" />
    <rect x="492" y="52" width="60" height="16" rx="4" fill="#1E293B" />
    <rect x="492" y="78" width="110" height="10" rx="4" fill="#94A3B8" />

    <rect x="692" y="32" width="236" height="88" rx="12" fill="#FFFFFF" stroke="#E2E8F0" stroke-width="1" />
    <rect x="712" y="52" width="60" height="16" rx="4" fill="#1E293B" />
    <rect x="712" y="78" width="110" height="10" rx="4" fill="#94A3B8" />
  </g>

  <!-- Supplier list rows -->
  <g>
    <rect x="32" y="144" width="896" height="72" rx="12" fill="#FFFFFF" stroke="#E2E8F0" stroke-width="1" />
    <circle cx="76" cy="180" r="20" fill="#DBEAFE" stroke="#93C5FD" stroke-width="2" />
    <rect x="116" y="166" width="260" height="12" rx="4" fill="#1E293B" />
    <rect x="116" y="186" width="140" height="9" rx="4" fill="#94A3B8" />
    <rect x="812" y="168" width="84" height="24" rx="12" fill="#D1FAE5" />

    <rect x="32" y="228" width="896" height="72" rx="12" fill="#FFFFFF" stroke="#E2E8F0" stroke-width="1" />
    <circle cx="76" cy="264" r="20" fill="#DBEAFE" stroke="#93C5FD" stroke-width="2" />
    <rect x="116" y="250" width="230" height="12" rx="4" fill="#1E293B" />
    <rect x="116" y="270" width="140" height="9" rx="4" fill="#94A3B8" />
    <rect x="812" y="252" width="84" height="24" rx="12" fill="#DBEAFE" />

    <rect x="32" y="312" width="896" height="72" rx="12" fill="#FFFFFF" stroke="#E2E8F0" stroke-width="1" />
    <circle cx="76" cy="348" r="20" fill="#DBEAFE" stroke="#93C5FD" stroke-width="2" />
    <rect x="116" y="334" width="280" height="12" rx="4" fill="#1E293B" />
    <rect x="116" y="354" width="140" height="9" rx="4" fill="#94A3B8" />
    <rect x="812" y="336" width="84" height="24" rx="12" fill="#FEF3C7" />

    <rect x="32" y="396" width="896" height="72" rx="12" fill="#FFFFFF" stroke="#E2E8F0" stroke-width="1" />
    <circle cx="76" cy="432" r="20" fill="#DBEAFE" stroke="#93C5FD" stroke-width="2" />
    <rect x="116" y="418" width="220" height="12" rx="4" fill="#1E293B" />
    <rect x="116" y="438" width="140" height="9" rx="4" fill="#94A3B8" />
    <rect x="812" y="420" width="84" height="24" rx="12" fill="#DBEAFE" />
  </g>

  <text x="480" y="512" text-anchor="middle" font-family="sans-serif" font-size="14" fill="#94A3B8">Product preview — placeholder</text>
</svg>
